<svg width="24" height="24" viewBox="0 0 24 24" fill="none" xmlns="http://www.w3.org/2000/svg">
<path fill-rule="evenodd" clip-rule="evenodd" d="M17.319 14.4326C19.7628 11.2941 19.542 6.75347 16.6569 3.86829C13.5327 0.744098 8.46734 0.744098 5.34315 3.86829C2.21895 6.99249 2.21895 12.0578 5.34315 15.182C8.22833 18.0672 12.769 18.2879 15.9075 15.8442C15.921 15.8595 15.9351 15.8745 15.9497 15.8891L20.1924 20.1317C20.5829 20.5223 21.2161 20.5223 21.6066 20.1317C21.9971 19.7412 21.9971 19.1081 21.6066 18.7175L17.364 14.4749C17.3493 14.4603 17.3343 14.4462 17.319 14.4326ZM15.2426 5.28251C17.5858 7.62565 17.5858 11.4246 15.2426 13.7678C12.8995 16.1109 9.1005 16.1109 6.75736 13.7678C4.41421 11.4246 4.41421 7.62565 6.75736 5.28251C9.1005 2.93936 12.8995 2.93936 15.2426 5.28251Z" fill="black"/>
</svg>
